<?xml version="1.0" encoding="UTF-8"?>
<!DOCTYPE svg PUBLIC "-//W3C//DTD SVG 1.1//EN" "http://www.w3.org/Graphics/SVG/1.1/DTD/svg11.dtd">
<svg xmlns="http://www.w3.org/2000/svg" version="1.1" width="330px" height="396px" style="shape-rendering:geometricPrecision; text-rendering:geometricPrecision; image-rendering:optimizeQuality; fill-rule:evenodd; clip-rule:evenodd" xmlns:xlink="http://www.w3.org/1999/xlink">
<g><path style="opacity:0.993" fill="#d83b02" d="M 89.5,315.5 C 89.0269,314.094 88.0269,313.427 86.5,313.5C 85.8333,312.5 85.1667,311.5 84.5,310.5C 84.0269,309.094 83.0269,308.427 81.5,308.5C 47.6843,271.954 36.1843,228.621 47,178.5C 53.6761,153.804 66.0094,132.471 84,114.5C 83.4495,127.971 86.7828,140.305 94,151.5C 93.8855,143.506 93.3855,135.506 92.5,127.5C 92.8988,121.653 93.5655,115.986 94.5,110.5C 97.3033,109.072 100.303,108.405 103.5,108.5C 105.374,101.531 105.041,94.5307 102.5,87.5C 102.154,84.1749 102.821,80.8416 104.5,77.5C 103.873,76.5832 103.539,75.5832 103.5,74.5C 109.937,54.9409 119.937,37.6076 133.5,22.5C 134.281,23.7287 134.781,25.062 135,26.5C 140.074,55.6895 145.241,84.8561 150.5,114C 111.681,137.405 98.5145,171.238 111,215.5C 115.061,228.287 120.728,240.287 128,251.5C 136.726,263.896 145.06,276.563 153,289.5C 170.334,318.539 175.667,349.539 169,382.5C 161.583,372.081 153.083,362.581 143.5,354C 127.18,342.172 110.513,330.839 93.5,320C 91.9586,318.629 90.6253,317.129 89.5,315.5 Z"/></g>
<g><path style="opacity:0.985" fill="#d93c04" d="M 231.5,41.5 C 232.649,41.7911 233.316,42.6244 233.5,44C 226.854,73.084 219.52,101.917 211.5,130.5C 197.804,111.83 179.471,100.497 156.5,96.5C 156.351,95.448 156.517,94.448 157,93.5C 179.548,72.7684 204.381,55.435 231.5,41.5 Z"/></g>
<g><path style="opacity:0.993" fill="#d33713" d="M 103.5,74.5 C 103.539,75.5832 103.873,76.5832 104.5,77.5C 102.821,80.8416 102.154,84.1749 102.5,87.5C 105.041,94.5307 105.374,101.531 103.5,108.5C 100.303,108.405 97.3033,109.072 94.5,110.5C 94.652,106.076 95.3187,101.743 96.5,97.5C 97.9238,95.4855 98.5905,93.1522 98.5,90.5C 99.0681,84.7287 100.735,79.3954 103.5,74.5 Z"/></g>
<g><path style="opacity:0.608" fill="#c13f5f" d="M 98.5,90.5 C 98.5905,93.1522 97.9238,95.4855 96.5,97.5C 96.4095,94.8478 97.0762,92.5145 98.5,90.5 Z"/></g>
<g><path style="opacity:0.979" fill="#d83d05" d="M 183.5,365.5 C 182.833,365.5 182.167,365.5 181.5,365.5C 185.076,335.441 181.909,306.108 172,277.5C 163.923,256.269 157.256,234.603 152,212.5C 151.333,210.167 151.333,207.833 152,205.5C 162.153,202.856 172.319,203.023 182.5,206C 200.094,211.968 217.761,217.634 235.5,223C 247.31,225.074 258.31,223.074 268.5,217C 259.983,214.034 251.317,211.368 242.5,209C 232.501,204.338 223.167,198.671 214.5,192C 205.136,182.97 196.136,173.637 187.5,164C 172.635,151.203 155.635,147.369 136.5,152.5C 136.5,151.833 136.5,151.167 136.5,150.5C 148.36,136.712 163.36,131.545 181.5,135C 188.561,137.029 194.894,140.363 200.5,145C 208.548,154.207 216.882,163.207 225.5,172C 235.312,181.122 246.645,187.789 259.5,192C 270.279,195.556 281.279,198.223 292.5,200C 293.022,200.561 293.355,201.228 293.5,202C 283.777,222.046 267.777,233.046 245.5,235C 241.167,235.667 236.833,235.667 232.5,235C 219.316,232.246 206.149,229.412 193,226.5C 183.127,228.037 179.127,233.704 181,243.5C 185.405,256.714 189.405,270.047 193,283.5C 198.695,309.795 196.695,335.461 187,360.5C 186.303,362.584 185.136,364.251 183.5,365.5 Z"/></g>
<g><path style="opacity:0.157" fill="#93978e" d="M 136.5,150.5 C 136.5,151.167 136.5,151.833 136.5,152.5C 136.103,153.525 135.437,153.692 134.5,153C 135.066,152.005 135.733,151.172 136.5,150.5 Z"/></g>
<g><path style="opacity:0.451" fill="#c9a07f" d="M 81.5,308.5 C 83.0269,308.427 84.0269,309.094 84.5,310.5C 82.9731,310.573 81.9731,309.906 81.5,308.5 Z"/></g>
<g><path style="opacity:0.341" fill="#c6ae92" d="M 86.5,313.5 C 88.0269,313.427 89.0269,314.094 89.5,315.5C 87.9731,315.573 86.9731,314.906 86.5,313.5 Z"/></g>
<g><path style="opacity:0.329" fill="#858882" d="M 181.5,365.5 C 182.167,365.5 182.833,365.5 183.5,365.5C 182.404,369.289 181.737,369.289 181.5,365.5 Z"/></g>
</svg>
