<?xml version="1.0" encoding="UTF-8"?>
<!DOCTYPE svg PUBLIC "-//W3C//DTD SVG 1.1//EN" "http://www.w3.org/Graphics/SVG/1.1/DTD/svg11.dtd">
<svg xmlns="http://www.w3.org/2000/svg" version="1.1" width="640px" height="240px" style="shape-rendering:geometricPrecision; text-rendering:geometricPrecision; image-rendering:optimizeQuality; fill-rule:evenodd; clip-rule:evenodd" xmlns:xlink="http://www.w3.org/1999/xlink">
<g><path style="opacity:0.988" fill="#d83c04" d="M 77.5,52.5 C 78.9238,50.4855 79.5905,48.1522 79.5,45.5C 83.1049,30.327 90.1049,16.9937 100.5,5.5C 101.806,6.91223 102.64,8.57889 103,10.5C 105.331,28.1579 108.498,45.6579 112.5,63C 90.9798,75.1556 81.8131,93.6556 85,118.5C 86.9638,128.032 90.2971,137.032 95,145.5C 106.076,159.658 115.076,174.991 122,191.5C 125.827,205.383 126.327,219.383 123.5,233.5C 118.636,227.124 113.303,221.124 107.5,215.5C 96.5,208 85.5,200.5 74.5,193C 46.6689,167.539 37.5022,136.373 47,99.5C 51.2882,85.4319 58.7882,73.4319 69.5,63.5C 70.3696,68.1588 71.2029,72.8255 72,77.5C 72.4728,79.779 73.4728,81.779 75,83.5C 75.5404,79.6487 75.3738,75.8153 74.5,72C 74.8701,65.3403 75.8701,58.8403 77.5,52.5 Z"/></g>
<g><path style="opacity:0.979" fill="#d83d05" d="M 160.5,17.5 C 161.833,17.5 163.167,17.5 164.5,17.5C 160.6,36.6607 155.933,55.6607 150.5,74.5C 142.115,63.3082 131.115,56.1416 117.5,53C 116.572,52.6121 115.905,51.9454 115.5,51C 119.154,46.0124 123.488,41.679 128.5,38C 139.095,30.8804 149.761,24.0471 160.5,17.5 Z"/></g>
<g><path style="opacity:0.18" fill="#c23d55" d="M 79.5,45.5 C 79.5905,48.1522 78.9238,50.4855 77.5,52.5C 77.4095,49.8478 78.0762,47.5145 79.5,45.5 Z"/></g>
<g><path style="opacity:0.978" fill="#d93900" d="M 227.5,64.5 C 250.167,64.5 272.833,64.5 295.5,64.5C 295.5,70.5 295.5,76.5 295.5,82.5C 279.5,82.5 263.5,82.5 247.5,82.5C 247.5,92.5 247.5,102.5 247.5,112.5C 261.167,112.5 274.833,112.5 288.5,112.5C 288.5,118.5 288.5,124.5 288.5,130.5C 274.833,130.5 261.167,130.5 247.5,130.5C 247.5,145.167 247.5,159.833 247.5,174.5C 240.833,174.5 234.167,174.5 227.5,174.5C 227.5,137.833 227.5,101.167 227.5,64.5 Z"/></g>
<g><path style="opacity:0.958" fill="#d83900" d="M 312.5,64.5 C 319.167,64.5 325.833,64.5 332.5,64.5C 332.5,101.167 332.5,137.833 332.5,174.5C 325.833,174.5 319.167,174.5 312.5,174.5C 312.5,137.833 312.5,101.167 312.5,64.5 Z"/></g>
<g><path style="opacity:0.974" fill="#d93900" d="M 345.5,64.5 C 352.755,64.1868 359.921,64.5201 367,65.5C 377.397,92.691 387.397,120.024 397,147.5C 406.545,119.695 416.379,92.0288 426.5,64.5C 433.5,64.5 440.5,64.5 447.5,64.5C 434.571,100.952 421.237,137.285 407.5,173.5C 400.276,174.812 393.109,174.812 386,173.5C 372.195,137.247 358.695,100.914 345.5,64.5 Z"/></g>
<g><path style="opacity:0.99" fill="#d93900" d="M 460.5,64.5 C 467.167,64.5 473.833,64.5 480.5,64.5C 480.5,95.1667 480.5,125.833 480.5,156.5C 495.833,156.5 511.167,156.5 526.5,156.5C 526.5,162.5 526.5,168.5 526.5,174.5C 504.5,174.5 482.5,174.5 460.5,174.5C 460.5,137.833 460.5,101.167 460.5,64.5 Z"/></g>
<g><path style="opacity:0.97" fill="#d93900" d="M 519.5,64.5 C 527.196,64.1692 534.862,64.5025 542.5,65.5C 550.868,80.7079 559.035,96.0412 567,111.5C 574.932,96.2062 582.932,80.8729 591,65.5C 598.42,64.3534 605.92,64.1868 613.5,65C 601.46,86.914 589.293,108.747 577,130.5C 576.5,145.163 576.333,159.83 576.5,174.5C 569.833,174.5 563.167,174.5 556.5,174.5C 556.667,159.83 556.5,145.163 556,130.5C 543.555,108.607 531.389,86.6066 519.5,64.5 Z"/></g>
<g><path style="opacity:0.963" fill="#d83e06" d="M 132.5,222.5 C 131.833,222.5 131.167,222.5 130.5,222.5C 132.946,203.406 131.113,184.739 125,166.5C 118.477,151.735 114.144,136.402 112,120.5C 117.75,119.359 123.584,119.193 129.5,120C 140.23,123.466 150.897,127.132 161.5,131C 169.857,132.375 177.857,131.375 185.5,128C 170.913,125.373 158.246,119.04 147.5,109C 141.008,100.168 133.008,93.1679 123.5,88C 116.874,86.236 110.208,86.0693 103.5,87.5C 102.662,87.1583 102.328,86.4916 102.5,85.5C 115.746,73.2128 129.746,72.3794 144.5,83C 153.93,97.096 166.596,107.096 182.5,113C 188.883,114.229 195.216,115.563 201.5,117C 202.022,117.561 202.355,118.228 202.5,119C 195.248,133.261 183.581,140.427 167.5,140.5C 157.657,139.33 147.991,137.33 138.5,134.5C 134.162,135.504 131.496,138.171 130.5,142.5C 136.205,157.358 139.871,172.692 141.5,188.5C 141.043,199.261 138.876,209.594 135,219.5C 134.623,220.942 133.79,221.942 132.5,222.5 Z"/></g>
<g><path style="opacity:0.031" fill="#979b92" d="M 102.5,85.5 C 102.328,86.4916 102.662,87.1583 103.5,87.5C 102.698,88.8847 102.031,88.718 101.5,87C 101.57,86.2352 101.903,85.7352 102.5,85.5 Z"/></g>
<g><path style="opacity:0.012" fill="#8a8e86" d="M 130.5,222.5 C 131.167,222.5 131.833,222.5 132.5,222.5C 131.833,225.167 131.167,225.167 130.5,222.5 Z"/></g>
</svg>
